<svg width="62px" height="65px" viewBox="-208 29 62 65" version="1.1" xmlns="http://www.w3.org/2000/svg" xmlns:xlink="http://www.w3.org/1999/xlink">
    <!-- Generator: Sketch 39.1 (31720) - http://www.bohemiancoding.com/sketch -->
    <desc>Created with Sketch.</desc>
    <defs></defs>
    <path d="M-172,85.7164446 L-172,88 L-180,88 L-180,85.7164446 C-178.693588,85.9033122 -177.358085,86 -176,86 C-174.641915,86 -173.306412,85.9033122 -172,85.7164446 Z M-194,89.9979131 C-194,88.8944962 -193.110107,88 -192.000293,88 L-159.999707,88 C-158.895299,88 -158,88.8982606 -158,89.9979131 L-158,94 L-194,94 L-194,89.9979131 Z" id="Combined-Shape" stroke="none" fill="#595959" fill-rule="evenodd"></path>
    <path d="M-176,86 C-160.536027,86 -148,73.463973 -148,58 C-148,42.536027 -160.536027,30 -176,30 C-191.463973,30 -204,42.536027 -204,58 C-204,73.463973 -191.463973,86 -176,86 Z" id="Oval" stroke="none" fill-opacity="0.8" fill="#ffffff" fill-rule="evenodd"></path>
    <circle id="Oval-2" stroke="none" fill="#595959" fill-rule="evenodd" cx="-176" cy="58" r="5"></circle>
    <path d="M-182.615488,53.5002469 C-184.929019,51.4328226 -187.585921,48.6211179 -190,45 C-191.964748,42.0528777 -190.758074,39.7401476 -190,37.9999999 C-188.443047,34.4260386 -183.907143,33.0465438 -178.5,32 C-170.46014,30.4438981 -154.000001,38.4999999 -158.500001,40.0000003 C-158.500001,40.0000003 -169.282206,46.0380349 -171.61979,51.3046036 C-172.878109,50.479721 -174.383032,50 -176,50 C-178.749781,50 -181.175532,51.3873373 -182.615488,53.5002469 Z" id="Combined-Shape" stroke="none" fill="#22A4F2" fill-rule="evenodd"></path>
    <path d="M-172.086542,78.0569319 C-174.400073,75.9895077 -177.056975,73.177803 -179.471054,69.5566851 C-181.435802,66.6095628 -180.229128,64.2968327 -179.471054,62.556685 C-177.914101,58.9827237 -173.378197,57.6032289 -167.971054,56.5566851 C-159.931194,55.0005832 -143.471054,63.056685 -147.971054,64.5566854 C-147.971054,64.5566854 -158.75326,70.59472 -161.090843,75.8612887 C-162.349162,75.0364061 -163.854086,74.5566851 -165.471054,74.5566851 C-168.220835,74.5566851 -170.646586,75.9440224 -172.086542,78.0569319 Z" id="Combined-Shape" stroke="none" fill="#22A4F2" fill-rule="evenodd" transform="translate(-163.871719, 67.207544) rotate(120.000000) translate(163.871719, -67.207544) "></path>
    <path d="M-198.09899,74.7830174 C-200.41252,72.7155932 -203.069423,69.9038885 -205.483501,66.2827706 C-207.448249,63.3356483 -206.241576,61.0229182 -205.483501,59.2827705 C-203.926548,55.7088092 -199.390644,54.3293144 -193.983501,53.2827706 C-185.943642,51.7266687 -169.483502,59.7827705 -173.983502,61.2827709 C-173.983502,61.2827709 -184.765707,67.3208055 -187.103291,72.5873742 C-188.36161,71.7624916 -189.866533,71.2827706 -191.483501,71.2827706 C-194.233282,71.2827706 -196.659034,72.6701079 -198.09899,74.7830174 Z" id="Combined-Shape" stroke="none" fill="#22A4F2" fill-rule="evenodd" transform="translate(-189.884167, 63.933630) rotate(240.000000) translate(189.884167, -63.933630) "></path>
</svg>