<svg width="33px" height="26px" viewBox="-190 -419 33 26" version="1.1" xmlns="http://www.w3.org/2000/svg" xmlns:xlink="http://www.w3.org/1999/xlink">
    <!-- Generator: Sketch 39.1 (31720) - http://www.bohemiancoding.com/sketch -->
    <desc>Created with Sketch.</desc>
    <defs></defs>
    <path d="M-187,-413 C-185.343146,-413 -184,-414.343146 -184,-416 C-184,-417.656854 -185.343146,-419 -187,-419 C-188.656854,-419 -190,-417.656854 -190,-416 C-190,-414.343146 -188.656854,-413 -187,-413 Z" id="Oval" stroke="none" fill="#FFFFFF" fill-rule="evenodd"></path>
    <rect id="Rectangle-2" stroke="none" fill="#FFFFFF" fill-rule="evenodd" x="-181" y="-418" width="24" height="4" rx="2"></rect>
    <path d="M-187,-403 C-185.343146,-403 -184,-404.343146 -184,-406 C-184,-407.656854 -185.343146,-409 -187,-409 C-188.656854,-409 -190,-407.656854 -190,-406 C-190,-404.343146 -188.656854,-403 -187,-403 Z" id="Oval" stroke="none" fill="#FFFFFF" fill-rule="evenodd"></path>
    <rect id="Rectangle-2" stroke="none" fill="#FFFFFF" fill-rule="evenodd" x="-181" y="-408" width="24" height="4" rx="2"></rect>
    <path d="M-187,-393 C-185.343146,-393 -184,-394.343146 -184,-396 C-184,-397.656854 -185.343146,-399 -187,-399 C-188.656854,-399 -190,-397.656854 -190,-396 C-190,-394.343146 -188.656854,-393 -187,-393 Z" id="Oval" stroke="none" fill="#FFFFFF" fill-rule="evenodd"></path>
    <rect id="Rectangle-2" stroke="none" fill="#FFFFFF" fill-rule="evenodd" x="-181" y="-398" width="24" height="4" rx="2"></rect>
</svg>